<svg xmlns="http://www.w3.org/2000/svg" xmlns:xlink="http://www.w3.org/1999/xlink"><polygon points="0, 200 0, 100 1, 101 2, 102 3, 103 4, 104 5, 103 6, 102 7, 101 8, 102 9, 101 10, 102 11, 101 12, 102 13, 103 14, 102 15, 101 16, 102 17, 103 18, 104 19, 105 20, 104 21, 103 22, 102 23, 103 24, 102 25, 103 26, 102 27, 103 28, 102 29, 103 30, 102 31, 101 32, 102 33, 101 34, 100 35, 99 36, 98 37, 97 38, 98 39, 97 40, 96 41, 97 42, 98 43, 97 44, 96 45, 95 46, 94 47, 93 48, 92 49, 93 50, 94 51, 95 52, 94 53, 95 54, 96 55, 97 56, 96 57, 97 58, 96 59, 95 60, 94 61, 93 62, 94 63, 95 64, 94 65, 93 66, 94 67, 93 68, 94 69, 93 70, 94 71, 95 72, 94 73, 93 74, 94 75, 95 76, 94 77, 93 78, 94 79, 93 80, 92 81, 93 82, 94 83, 93 84, 94 85, 93 86, 92 87, 93 88, 92 89, 93 90, 94 91, 93 92, 92 93, 93 94, 92 95, 91 96, 90 97, 89 98, 90 99, 89 100, 88 101, 87 102, 88 103, 89 104, 90 105, 91 106, 92 107, 93 108, 94 109, 93 110, 94 111, 95 112, 94 113, 93 114, 92 115, 91 116, 92 117, 91 118, 90 119, 89 120, 90 121, 89 122, 88 123, 87 124, 86 125, 87 126, 86 127, 87 128, 86 129, 87 130, 88 131, 89 132, 88 133, 89 134, 88 135, 87 136, 88 137, 89 138, 90 139, 91 140, 92 141, 93 142, 94 143, 95 144, 94 145, 93 146, 92 147, 93 148, 94 149, 95 150, 94 151, 95 152, 94 153, 93 154, 92 155, 91 156, 92 157, 93 158, 92 159, 93 160, 94 161, 95 162, 94 163, 93 164, 92 165, 93 166, 92 167, 91 168, 90 169, 89 170, 90 171, 91 172, 90 173, 89 174, 90 175, 89 176, 88 177, 89 178, 90 179, 91 180, 92 181, 93 182, 92 183, 93 184, 92 185, 93 186, 92 187, 93 188, 92 189, 93 190, 94 191, 93 192, 92 193, 91 194, 92 195, 91 196, 90 197, 89 198, 88 199, 89 200, 88 201, 89 202, 90 203, 91 204, 92 205, 93 206, 92 207, 91 208, 90 209, 89 210, 88 211, 87 212, 88 213, 87 214, 86 215, 87 216, 86 217, 87 218, 86 219, 85 220, 84 221, 85 222, 84 223, 83 224, 82 225, 81 226, 80 227, 81 228, 80 229, 79 230, 80 231, 81 232, 82 233, 81 234, 80 235, 81 236, 80 237, 81 238, 80 239, 79 240, 80 241, 79 242, 80 243, 79 244, 78 245, 79 246, 78 247, 79 248, 80 249, 79 250, 80 251, 81 252, 80 253, 81 254, 80 255, 81 256, 82 257, 81 258, 80 259, 79 260, 78 261, 77 262, 76 263, 77 264, 76 265, 77 266, 76 267, 77 268, 76 269, 77 270, 76 271, 75 272, 74 273, 75 274, 74 275, 73 276, 72 277, 73 278, 72 279, 73 280, 74 281, 73 282, 72 283, 73 284, 74 285, 75 286, 76 287, 77 288, 78 289, 79 290, 80 291, 79 292, 78 293, 79 294, 78 295, 79 296, 80 297, 79 298, 78 299, 77 300, 76 301, 77 302, 78 303, 79 304, 80 305, 79 306, 78 307, 77 308, 76 309, 77 310, 76 311, 75 312, 74 313, 75 314, 76 315, 77 316, 78 317, 77 318, 78 319, 77 320, 78 321, 79 322, 78 323, 77 324, 78 325, 79 326, 78 327, 79 328, 78 329, 77 330, 76 331, 77 332, 78 333, 79 334, 80 335, 81 336, 80 337, 81 338, 82 339, 83 340, 84 341, 85 342, 86 343, 87 344, 88 345, 87 346, 86 347, 85 348, 84 349, 85 350, 84 351, 83 352, 84 353, 85 354, 86 355, 87 356, 88 357, 87 358, 88 359, 87 360, 88 361, 89 362, 88 363, 87 364, 88 365, 89 366, 88 367, 87 368, 86 369, 85 370, 86 371, 85 372, 86 373, 85 374, 84 375, 85 376, 84 377, 83 378, 82 379, 83 380, 82 381, 81 382, 82 383, 83 384, 82 385, 81 386, 80 387, 79 388, 80 389, 81 390, 82 391, 83 392, 82 393, 83 394, 84 395, 83 396, 84 397, 85 398, 86 399, 85 400, 200 " style="fill:rgb(85,254,219);stroke:rgb(0,154,119)"></polygon><polygon points="0, 200 0, 100 1, 101 2, 100 3, 101 4, 100 5, 99 6, 98 7, 99 8, 98 9, 99 10, 100 11, 101 12, 102 13, 101 14, 102 15, 103 16, 104 17, 103 18, 102 19, 103 20, 104 21, 103 22, 102 23, 103 24, 102 25, 101 26, 100 27, 99 28, 100 29, 101 30, 102 31, 101 32, 100 33, 99 34, 98 35, 99 36, 100 37, 99 38, 100 39, 99 40, 98 41, 99 42, 100 43, 99 44, 98 45, 99 46, 98 47, 97 48, 98 49, 97 50, 98 51, 99 52, 98 53, 97 54, 96 55, 97 56, 96 57, 95 58, 94 59, 95 60, 96 61, 97 62, 98 63, 97 64, 98 65, 99 66, 100 67, 99 68, 98 69, 97 70, 96 71, 95 72, 94 73, 95 74, 96 75, 95 76, 96 77, 97 78, 96 79, 97 80, 96 81, 97 82, 98 83, 99 84, 100 85, 99 86, 98 87, 97 88, 98 89, 97 90, 98 91, 99 92, 100 93, 99 94, 100 95, 101 96, 102 97, 101 98, 102 99, 103 100, 104 101, 103 102, 104 103, 105 104, 104 105, 103 106, 104 107, 103 108, 102 109, 103 110, 102 111, 101 112, 102 113, 103 114, 104 115, 103 116, 104 117, 105 118, 104 119, 105 120, 106 121, 107 122, 108 123, 107 124, 106 125, 105 126, 106 127, 107 128, 106 129, 105 130, 106 131, 107 132, 106 133, 107 134, 106 135, 105 136, 106 137, 105 138, 104 139, 105 140, 106 141, 107 142, 106 143, 105 144, 106 145, 107 146, 106 147, 107 148, 106 149, 105 150, 106 151, 105 152, 106 153, 107 154, 106 155, 105 156, 106 157, 107 158, 106 159, 107 160, 108 161, 107 162, 108 163, 107 164, 106 165, 107 166, 108 167, 109 168, 110 169, 111 170, 112 171, 111 172, 110 173, 111 174, 110 175, 111 176, 110 177, 109 178, 108 179, 107 180, 106 181, 107 182, 108 183, 109 184, 108 185, 107 186, 108 187, 109 188, 110 189, 111 190, 110 191, 111 192, 112 193, 111 194, 112 195, 113 196, 114 197, 115 198, 116 199, 117 200, 118 201, 119 202, 118 203, 119 204, 118 205, 117 206, 118 207, 117 208, 116 209, 117 210, 116 211, 115 212, 116 213, 115 214, 116 215, 117 216, 118 217, 117 218, 118 219, 119 220, 120 221, 119 222, 120 223, 121 224, 122 225, 121 226, 120 227, 121 228, 122 229, 121 230, 122 231, 121 232, 120 233, 119 234, 118 235, 117 236, 118 237, 117 238, 116 239, 115 240, 116 241, 115 242, 114 243, 113 244, 114 245, 115 246, 114 247, 115 248, 114 249, 115 250, 114 251, 113 252, 112 253, 113 254, 114 255, 115 256, 116 257, 117 258, 118 259, 119 260, 120 261, 121 262, 120 263, 119 264, 120 265, 121 266, 120 267, 121 268, 122 269, 121 270, 120 271, 121 272, 120 273, 121 274, 122 275, 123 276, 124 277, 123 278, 124 279, 123 280, 124 281, 123 282, 122 283, 123 284, 124 285, 125 286, 126 287, 125 288, 124 289, 123 290, 124 291, 125 292, 124 293, 123 294, 124 295, 125 296, 124 297, 123 298, 124 299, 123 300, 122 301, 121 302, 122 303, 121 304, 122 305, 121 306, 120 307, 121 308, 122 309, 121 310, 122 311, 121 312, 120 313, 119 314, 118 315, 117 316, 118 317, 117 318, 118 319, 117 320, 118 321, 117 322, 116 323, 115 324, 116 325, 115 326, 116 327, 117 328, 116 329, 117 330, 118 331, 117 332, 118 333, 117 334, 116 335, 115 336, 116 337, 117 338, 116 339, 115 340, 114 341, 113 342, 114 343, 113 344, 114 345, 113 346, 114 347, 115 348, 114 349, 115 350, 116 351, 117 352, 116 353, 115 354, 114 355, 113 356, 112 357, 113 358, 112 359, 113 360, 112 361, 111 362, 110 363, 111 364, 112 365, 113 366, 114 367, 115 368, 116 369, 115 370, 114 371, 113 372, 112 373, 111 374, 110 375, 111 376, 112 377, 113 378, 112 379, 111 380, 112 381, 111 382, 112 383, 113 384, 112 385, 111 386, 112 387, 113 388, 112 389, 111 390, 110 391, 109 392, 108 393, 109 394, 108 395, 107 396, 106 397, 105 398, 106 399, 105 400, 200 " style="fill:rgb(73,92,219);stroke:rgb(0,0,119)"></polygon><polygon points="0, 200 0, 100 1, 99 2, 98 3, 99 4, 98 5, 99 6, 98 7, 99 8, 98 9, 97 10, 98 11, 99 12, 98 13, 97 14, 96 15, 95 16, 96 17, 95 18, 94 19, 93 20, 94 21, 95 22, 94 23, 95 24, 94 25, 95 26, 94 27, 93 28, 92 29, 91 30, 92 31, 93 32, 92 33, 91 34, 90 35, 89 36, 90 37, 89 38, 90 39, 91 40, 92 41, 93 42, 94 43, 93 44, 92 45, 93 46, 92 47, 91 48, 92 49, 93 50, 92 51, 93 52, 94 53, 93 54, 92 55, 93 56, 94 57, 95 58, 94 59, 93 60, 94 61, 93 62, 94 63, 95 64, 94 65, 95 66, 94 67, 95 68, 94 69, 93 70, 94 71, 93 72, 92 73, 93 74, 94 75, 95 76, 94 77, 93 78, 92 79, 91 80, 92 81, 93 82, 92 83, 91 84, 90 85, 91 86, 92 87, 93 88, 94 89, 93 90, 94 91, 95 92, 96 93, 97 94, 98 95, 97 96, 96 97, 95 98, 94 99, 93 100, 92 101, 93 102, 94 103, 93 104, 92 105, 93 106, 94 107, 95 108, 94 109, 95 110, 96 111, 95 112, 94 113, 93 114, 94 115, 93 116, 94 117, 93 118, 94 119, 93 120, 92 121, 93 122, 92 123, 91 124, 92 125, 93 126, 94 127, 95 128, 96 129, 97 130, 96 131, 95 132, 96 133, 97 134, 96 135, 97 136, 96 137, 95 138, 96 139, 97 140, 96 141, 97 142, 96 143, 97 144, 96 145, 97 146, 98 147, 97 148, 98 149, 97 150, 98 151, 97 152, 96 153, 97 154, 98 155, 99 156, 100 157, 101 158, 100 159, 101 160, 100 161, 99 162, 98 163, 97 164, 98 165, 99 166, 98 167, 97 168, 96 169, 97 170, 96 171, 97 172, 96 173, 95 174, 94 175, 95 176, 94 177, 95 178, 94 179, 95 180, 94 181, 95 182, 94 183, 93 184, 94 185, 95 186, 94 187, 93 188, 94 189, 93 190, 94 191, 93 192, 94 193, 95 194, 96 195, 95 196, 94 197, 95 198, 96 199, 95 200, 96 201, 97 202, 98 203, 99 204, 100 205, 101 206, 100 207, 99 208, 98 209, 97 210, 96 211, 97 212, 96 213, 95 214, 94 215, 93 216, 92 217, 93 218, 94 219, 95 220, 94 221, 93 222, 94 223, 93 224, 92 225, 93 226, 92 227, 93 228, 92 229, 91 230, 90 231, 91 232, 92 233, 91 234, 90 235, 91 236, 92 237, 93 238, 92 239, 93 240, 94 241, 95 242, 94 243, 93 244, 94 245, 95 246, 96 247, 95 248, 96 249, 95 250, 94 251, 93 252, 92 253, 93 254, 94 255, 95 256, 96 257, 97 258, 98 259, 99 260, 98 261, 99 262, 100 263, 99 264, 98 265, 97 266, 98 267, 97 268, 96 269, 95 270, 94 271, 93 272, 92 273, 93 274, 92 275, 93 276, 94 277, 95 278, 96 279, 97 280, 96 281, 97 282, 98 283, 97 284, 98 285, 97 286, 98 287, 97 288, 98 289, 99 290, 98 291, 97 292, 98 293, 97 294, 98 295, 97 296, 98 297, 99 298, 100 299, 101 300, 102 301, 101 302, 102 303, 101 304, 102 305, 101 306, 100 307, 101 308, 102 309, 101 310, 100 311, 101 312, 100 313, 101 314, 102 315, 101 316, 100 317, 101 318, 100 319, 101 320, 100 321, 99 322, 98 323, 97 324, 98 325, 99 326, 98 327, 97 328, 98 329, 97 330, 96 331, 97 332, 96 333, 95 334, 96 335, 95 336, 94 337, 93 338, 94 339, 95 340, 96 341, 95 342, 94 343, 95 344, 94 345, 93 346, 94 347, 95 348, 94 349, 95 350, 94 351, 93 352, 92 353, 93 354, 94 355, 95 356, 94 357, 95 358, 96 359, 97 360, 96 361, 97 362, 96 363, 97 364, 98 365, 97 366, 98 367, 97 368, 98 369, 99 370, 98 371, 97 372, 98 373, 97 374, 96 375, 95 376, 96 377, 97 378, 98 379, 99 380, 100 381, 101 382, 102 383, 101 384, 102 385, 101 386, 102 387, 101 388, 102 389, 103 390, 102 391, 101 392, 100 393, 99 394, 100 395, 99 396, 100 397, 101 398, 100 399, 101 400, 200 " style="fill:rgb(99,7,192);stroke:rgb(0,0,92)"></polygon><polygon points="0, 200 0, 100 1, 99 2, 100 3, 99 4, 98 5, 99 6, 98 7, 99 8, 100 9, 101 10, 100 11, 101 12, 100 13, 99 14, 100 15, 99 16, 100 17, 99 18, 100 19, 101 20, 102 21, 103 22, 104 23, 103 24, 104 25, 105 26, 106 27, 107 28, 108 29, 107 30, 108 31, 109 32, 108 33, 107 34, 108 35, 109 36, 108 37, 107 38, 108 39, 109 40, 110 41, 109 42, 108 43, 107 44, 108 45, 107 46, 106 47, 107 48, 106 49, 105 50, 106 51, 107 52, 106 53, 105 54, 104 55, 105 56, 104 57, 103 58, 102 59, 103 60, 104 61, 105 62, 106 63, 107 64, 106 65, 105 66, 106 67, 107 68, 106 69, 105 70, 106 71, 107 72, 108 73, 109 74, 110 75, 111 76, 112 77, 113 78, 114 79, 115 80, 114 81, 115 82, 116 83, 117 84, 118 85, 119 86, 118 87, 117 88, 116 89, 117 90, 118 91, 119 92, 118 93, 119 94, 120 95, 121 96, 120 97, 121 98, 122 99, 123 100, 122 101, 121 102, 122 103, 123 104, 124 105, 123 106, 124 107, 125 108, 126 109, 127 110, 126 111, 127 112, 126 113, 127 114, 128 115, 127 116, 126 117, 127 118, 126 119, 125 120, 126 121, 125 122, 126 123, 127 124, 126 125, 125 126, 124 127, 123 128, 122 129, 121 130, 120 131, 121 132, 120 133, 119 134, 120 135, 121 136, 122 137, 123 138, 122 139, 121 140, 120 141, 121 142, 120 143, 121 144, 122 145, 123 146, 122 147, 121 148, 120 149, 121 150, 120 151, 121 152, 120 153, 121 154, 120 155, 119 156, 118 157, 119 158, 120 159, 121 160, 120 161, 121 162, 120 163, 119 164, 118 165, 117 166, 116 167, 117 168, 118 169, 117 170, 116 171, 115 172, 116 173, 117 174, 118 175, 119 176, 120 177, 121 178, 120 179, 121 180, 120 181, 119 182, 120 183, 119 184, 120 185, 119 186, 118 187, 119 188, 120 189, 119 190, 118 191, 117 192, 118 193, 117 194, 116 195, 115 196, 116 197, 117 198, 118 199, 117 200, 116 201, 117 202, 116 203, 117 204, 118 205, 119 206, 120 207, 119 208, 120 209, 121 210, 120 211, 119 212, 118 213, 119 214, 118 215, 117 216, 118 217, 119 218, 120 219, 119 220, 120 221, 121 222, 120 223, 119 224, 118 225, 119 226, 120 227, 119 228, 120 229, 121 230, 122 231, 123 232, 124 233, 123 234, 122 235, 123 236, 124 237, 125 238, 126 239, 127 240, 128 241, 127 242, 126 243, 125 244, 126 245, 127 246, 128 247, 127 248, 126 249, 127 250, 126 251, 125 252, 126 253, 125 254, 124 255, 123 256, 124 257, 123 258, 124 259, 123 260, 124 261, 125 262, 124 263, 125 264, 126 265, 125 266, 124 267, 125 268, 124 269, 123 270, 124 271, 125 272, 124 273, 125 274, 126 275, 125 276, 124 277, 123 278, 124 279, 123 280, 124 281, 123 282, 124 283, 125 284, 126 285, 127 286, 126 287, 127 288, 126 289, 125 290, 126 291, 125 292, 126 293, 127 294, 128 295, 127 296, 128 297, 129 298, 128 299, 129 300, 130 301, 131 302, 130 303, 131 304, 130 305, 131 306, 132 307, 131 308, 132 309, 133 310, 132 311, 131 312, 130 313, 131 314, 130 315, 129 316, 130 317, 131 318, 130 319, 131 320, 132 321, 133 322, 134 323, 133 324, 132 325, 131 326, 132 327, 133 328, 132 329, 131 330, 132 331, 131 332, 132 333, 131 334, 132 335, 133 336, 134 337, 135 338, 134 339, 135 340, 136 341, 135 342, 136 343, 135 344, 136 345, 135 346, 134 347, 135 348, 136 349, 135 350, 134 351, 133 352, 132 353, 131 354, 130 355, 131 356, 132 357, 133 358, 134 359, 133 360, 132 361, 133 362, 134 363, 133 364, 132 365, 131 366, 132 367, 133 368, 132 369, 133 370, 132 371, 133 372, 134 373, 133 374, 132 375, 131 376, 132 377, 133 378, 132 379, 133 380, 132 381, 131 382, 130 383, 131 384, 130 385, 131 386, 132 387, 131 388, 132 389, 133 390, 132 391, 131 392, 132 393, 131 394, 130 395, 129 396, 128 397, 127 398, 126 399, 127 400, 200 " style="fill:rgb(7,82,37);stroke:rgb(0,0,0)"></polygon><polygon points="0, 200 0, 100 1, 101 2, 102 3, 101 4, 102 5, 103 6, 102 7, 103 8, 102 9, 101 10, 102 11, 103 12, 104 13, 103 14, 104 15, 105 16, 106 17, 105 18, 106 19, 107 20, 106 21, 107 22, 108 23, 107 24, 106 25, 107 26, 108 27, 107 28, 106 29, 107 30, 108 31, 109 32, 110 33, 109 34, 110 35, 109 36, 110 37, 109 38, 110 39, 109 40, 108 41, 109 42, 108 43, 107 44, 108 45, 109 46, 110 47, 111 48, 112 49, 111 50, 112 51, 113 52, 114 53, 115 54, 114 55, 113 56, 114 57, 113 58, 114 59, 115 60, 116 61, 115 62, 116 63, 117 64, 118 65, 119 66, 118 67, 117 68, 118 69, 119 70, 118 71, 117 72, 116 73, 117 74, 116 75, 115 76, 116 77, 117 78, 118 79, 117 80, 116 81, 115 82, 116 83, 115 84, 116 85, 117 86, 116 87, 115 88, 114 89, 113 90, 112 91, 113 92, 114 93, 113 94, 114 95, 113 96, 112 97, 111 98, 112 99, 111 100, 110 101, 109 102, 108 103, 109 104, 110 105, 109 106, 110 107, 111 108, 110 109, 111 110, 110 111, 109 112, 110 113, 109 114, 108 115, 107 116, 106 117, 107 118, 108 119, 107 120, 106 121, 107 122, 108 123, 107 124, 108 125, 109 126, 110 127, 111 128, 110 129, 111 130, 110 131, 111 132, 110 133, 109 134, 110 135, 109 136, 108 137, 107 138, 108 139, 109 140, 108 141, 109 142, 110 143, 109 144, 110 145, 111 146, 110 147, 111 148, 110 149, 111 150, 112 151, 111 152, 110 153, 109 154, 110 155, 109 156, 108 157, 107 158, 108 159, 109 160, 108 161, 107 162, 108 163, 109 164, 110 165, 109 166, 108 167, 109 168, 108 169, 107 170, 106 171, 105 172, 106 173, 107 174, 106 175, 107 176, 106 177, 105 178, 106 179, 105 180, 104 181, 103 182, 104 183, 105 184, 104 185, 103 186, 104 187, 103 188, 104 189, 103 190, 102 191, 101 192, 100 193, 101 194, 102 195, 103 196, 104 197, 105 198, 104 199, 103 200, 104 201, 103 202, 102 203, 101 204, 100 205, 101 206, 100 207, 101 208, 100 209, 99 210, 98 211, 97 212, 98 213, 97 214, 96 215, 97 216, 98 217, 99 218, 98 219, 99 220, 98 221, 99 222, 98 223, 99 224, 100 225, 101 226, 100 227, 99 228, 98 229, 99 230, 98 231, 99 232, 98 233, 97 234, 96 235, 95 236, 94 237, 95 238, 96 239, 97 240, 96 241, 95 242, 96 243, 95 244, 94 245, 95 246, 94 247, 95 248, 94 249, 95 250, 94 251, 93 252, 94 253, 93 254, 92 255, 93 256, 94 257, 93 258, 94 259, 93 260, 92 261, 93 262, 94 263, 95 264, 94 265, 95 266, 96 267, 97 268, 96 269, 95 270, 94 271, 93 272, 92 273, 93 274, 92 275, 93 276, 92 277, 91 278, 92 279, 91 280, 92 281, 91 282, 90 283, 91 284, 92 285, 91 286, 90 287, 91 288, 90 289, 89 290, 88 291, 87 292, 88 293, 89 294, 88 295, 89 296, 88 297, 89 298, 88 299, 87 300, 88 301, 89 302, 90 303, 89 304, 90 305, 91 306, 90 307, 91 308, 90 309, 91 310, 92 311, 91 312, 90 313, 91 314, 90 315, 91 316, 92 317, 91 318, 92 319, 93 320, 92 321, 91 322, 92 323, 91 324, 92 325, 91 326, 90 327, 89 328, 90 329, 89 330, 88 331, 87 332, 86 333, 85 334, 86 335, 85 336, 86 337, 85 338, 84 339, 83 340, 82 341, 83 342, 82 343, 81 344, 80 345, 79 346, 80 347, 79 348, 78 349, 79 350, 80 351, 79 352, 78 353, 79 354, 78 355, 79 356, 78 357, 79 358, 80 359, 79 360, 78 361, 79 362, 80 363, 81 364, 82 365, 81 366, 82 367, 83 368, 84 369, 85 370, 84 371, 85 372, 84 373, 83 374, 84 375, 83 376, 82 377, 81 378, 80 379, 79 380, 80 381, 79 382, 78 383, 79 384, 78 385, 79 386, 80 387, 81 388, 82 389, 81 390, 82 391, 81 392, 80 393, 81 394, 82 395, 81 396, 82 397, 83 398, 84 399, 83 400, 200 " style="fill:rgb(147,139,159);stroke:rgb(47,39,59)"></polygon><polygon points="0, 200 0, 100 1, 101 2, 102 3, 103 4, 102 5, 101 6, 102 7, 101 8, 102 9, 103 10, 104 11, 105 12, 104 13, 105 14, 106 15, 107 16, 106 17, 105 18, 106 19, 107 20, 108 21, 107 22, 106 23, 107 24, 106 25, 107 26, 108 27, 107 28, 106 29, 107 30, 106 31, 107 32, 106 33, 105 34, 104 35, 105 36, 106 37, 105 38, 104 39, 103 40, 102 41, 101 42, 102 43, 101 44, 102 45, 103 46, 102 47, 103 48, 104 49, 105 50, 104 51, 103 52, 104 53, 105 54, 104 55, 103 56, 104 57, 105 58, 106 59, 107 60, 108 61, 107 62, 106 63, 107 64, 108 65, 107 66, 106 67, 105 68, 106 69, 105 70, 106 71, 105 72, 104 73, 103 74, 102 75, 103 76, 102 77, 103 78, 102 79, 101 80, 100 81, 101 82, 102 83, 101 84, 102 85, 103 86, 104 87, 103 88, 102 89, 101 90, 100 91, 99 92, 98 93, 99 94, 98 95, 99 96, 100 97, 101 98, 100 99, 101 100, 102 101, 103 102, 104 103, 105 104, 106 105, 107 106, 108 107, 109 108, 108 109, 107 110, 106 111, 107 112, 106 113, 107 114, 108 115, 109 116, 110 117, 111 118, 112 119, 111 120, 110 121, 111 122, 110 123, 111 124, 110 125, 109 126, 108 127, 107 128, 108 129, 107 130, 108 131, 107 132, 106 133, 105 134, 104 135, 105 136, 104 137, 105 138, 106 139, 107 140, 106 141, 107 142, 106 143, 105 144, 106 145, 105 146, 106 147, 107 148, 108 149, 107 150, 108 151, 109 152, 108 153, 107 154, 106 155, 107 156, 108 157, 107 158, 106 159, 105 160, 104 161, 103 162, 104 163, 105 164, 106 165, 105 166, 104 167, 103 168, 102 169, 101 170, 100 171, 101 172, 100 173, 99 174, 100 175, 101 176, 102 177, 101 178, 102 179, 103 180, 104 181, 103 182, 102 183, 101 184, 100 185, 101 186, 102 187, 101 188, 100 189, 99 190, 100 191, 99 192, 98 193, 99 194, 98 195, 99 196, 100 197, 99 198, 98 199, 99 200, 98 201, 99 202, 98 203, 99 204, 100 205, 99 206, 98 207, 97 208, 96 209, 95 210, 96 211, 97 212, 96 213, 95 214, 96 215, 97 216, 98 217, 99 218, 100 219, 99 220, 98 221, 97 222, 98 223, 97 224, 98 225, 99 226, 98 227, 97 228, 96 229, 95 230, 94 231, 93 232, 92 233, 93 234, 92 235, 93 236, 94 237, 93 238, 92 239, 93 240, 94 241, 95 242, 96 243, 97 244, 98 245, 99 246, 98 247, 97 248, 96 249, 97 250, 98 251, 97 252, 98 253, 97 254, 96 255, 97 256, 96 257, 95 258, 96 259, 95 260, 94 261, 95 262, 96 263, 97 264, 98 265, 99 266, 100 267, 101 268, 100 269, 99 270, 98 271, 97 272, 98 273, 99 274, 100 275, 101 276, 102 277, 103 278, 104 279, 105 280, 106 281, 105 282, 104 283, 105 284, 104 285, 105 286, 106 287, 105 288, 106 289, 105 290, 104 291, 105 292, 104 293, 103 294, 102 295, 103 296, 102 297, 103 298, 104 299, 105 300, 106 301, 107 302, 106 303, 105 304, 104 305, 103 306, 104 307, 103 308, 102 309, 101 310, 100 311, 99 312, 98 313, 97 314, 98 315, 99 316, 98 317, 99 318, 98 319, 97 320, 96 321, 95 322, 94 323, 93 324, 92 325, 93 326, 94 327, 93 328, 94 329, 95 330, 94 331, 95 332, 96 333, 95 334, 96 335, 97 336, 98 337, 99 338, 100 339, 99 340, 98 341, 97 342, 96 343, 97 344, 98 345, 99 346, 98 347, 97 348, 98 349, 99 350, 100 351, 101 352, 100 353, 101 354, 102 355, 103 356, 104 357, 105 358, 106 359, 107 360, 108 361, 107 362, 106 363, 107 364, 108 365, 109 366, 110 367, 109 368, 110 369, 109 370, 108 371, 107 372, 108 373, 109 374, 110 375, 109 376, 108 377, 109 378, 110 379, 111 380, 110 381, 109 382, 110 383, 111 384, 110 385, 109 386, 108 387, 109 388, 108 389, 107 390, 106 391, 105 392, 106 393, 107 394, 108 395, 109 396, 108 397, 109 398, 110 399, 111 400, 200 " style="fill:rgb(96,210,12);stroke:rgb(0,110,0)"></polygon><polygon points="0, 200 0, 100 1, 99 2, 98 3, 99 4, 100 5, 101 6, 102 7, 101 8, 100 9, 101 10, 100 11, 101 12, 100 13, 99 14, 100 15, 101 16, 100 17, 99 18, 100 19, 99 20, 100 21, 99 22, 100 23, 101 24, 102 25, 101 26, 100 27, 101 28, 100 29, 101 30, 100 31, 99 32, 98 33, 97 34, 96 35, 95 36, 96 37, 95 38, 96 39, 95 40, 96 41, 95 42, 96 43, 97 44, 96 45, 95 46, 96 47, 97 48, 96 49, 95 50, 96 51, 95 52, 96 53, 97 54, 98 55, 99 56, 98 57, 99 58, 98 59, 97 60, 98 61, 97 62, 98 63, 97 64, 98 65, 97 66, 96 67, 97 68, 96 69, 97 70, 96 71, 97 72, 96 73, 97 74, 98 75, 97 76, 98 77, 97 78, 98 79, 99 80, 98 81, 97 82, 98 83, 99 84, 100 85, 99 86, 100 87, 99 88, 98 89, 97 90, 96 91, 95 92, 94 93, 93 94, 94 95, 93 96, 94 97, 93 98, 94 99, 93 100, 92 101, 91 102, 92 103, 93 104, 92 105, 93 106, 92 107, 91 108, 90 109, 91 110, 92 111, 91 112, 92 113, 91 114, 90 115, 91 116, 90 117, 89 118, 88 119, 89 120, 88 121, 89 122, 90 123, 89 124, 88 125, 89 126, 90 127, 89 128, 88 129, 89 130, 88 131, 89 132, 88 133, 87 134, 86 135, 85 136, 84 137, 83 138, 82 139, 81 140, 82 141, 83 142, 84 143, 83 144, 82 145, 81 146, 80 147, 81 148, 82 149, 81 150, 82 151, 81 152, 80 153, 79 154, 80 155, 81 156, 80 157, 81 158, 80 159, 81 160, 82 161, 81 162, 80 163, 81 164, 80 165, 79 166, 78 167, 79 168, 80 169, 79 170, 80 171, 81 172, 80 173, 81 174, 80 175, 81 176, 82 177, 81 178, 82 179, 83 180, 82 181, 83 182, 82 183, 81 184, 80 185, 81 186, 82 187, 81 188, 82 189, 83 190, 82 191, 81 192, 80 193, 81 194, 80 195, 79 196, 78 197, 77 198, 76 199, 77 200, 76 201, 75 202, 74 203, 75 204, 74 205, 73 206, 72 207, 73 208, 72 209, 71 210, 70 211, 71 212, 70 213, 69 214, 70 215, 69 216, 68 217, 67 218, 66 219, 65 220, 64 221, 65 222, 66 223, 67 224, 68 225, 69 226, 70 227, 71 228, 72 229, 73 230, 72 231, 73 232, 74 233, 75 234, 74 235, 73 236, 74 237, 75 238, 76 239, 77 240, 78 241, 79 242, 78 243, 79 244, 80 245, 79 246, 78 247, 77 248, 76 249, 75 250, 76 251, 77 252, 78 253, 79 254, 78 255, 79 256, 78 257, 79 258, 78 259, 79 260, 78 261, 79 262, 80 263, 81 264, 82 265, 83 266, 84 267, 83 268, 84 269, 85 270, 84 271, 83 272, 82 273, 81 274, 82 275, 81 276, 80 277, 79 278, 78 279, 77 280, 76 281, 77 282, 76 283, 75 284, 74 285, 75 286, 74 287, 75 288, 74 289, 75 290, 76 291, 77 292, 76 293, 77 294, 78 295, 77 296, 76 297, 77 298, 76 299, 77 300, 76 301, 75 302, 76 303, 75 304, 74 305, 75 306, 76 307, 77 308, 78 309, 77 310, 78 311, 79 312, 78 313, 79 314, 78 315, 79 316, 78 317, 79 318, 80 319, 79 320, 78 321, 77 322, 78 323, 79 324, 80 325, 79 326, 80 327, 79 328, 78 329, 77 330, 78 331, 79 332, 78 333, 79 334, 80 335, 81 336, 82 337, 81 338, 80 339, 81 340, 80 341, 79 342, 78 343, 77 344, 76 345, 75 346, 76 347, 75 348, 76 349, 75 350, 76 351, 75 352, 76 353, 77 354, 78 355, 79 356, 78 357, 77 358, 76 359, 77 360, 78 361, 79 362, 80 363, 81 364, 80 365, 79 366, 78 367, 77 368, 76 369, 77 370, 78 371, 77 372, 76 373, 77 374, 78 375, 77 376, 76 377, 75 378, 76 379, 75 380, 76 381, 75 382, 76 383, 77 384, 78 385, 79 386, 80 387, 81 388, 82 389, 83 390, 84 391, 83 392, 84 393, 83 394, 84 395, 83 396, 84 397, 85 398, 86 399, 87 400, 200 " style="fill:rgb(207,4,151);stroke:rgb(107,0,51)"></polygon><polygon points="0, 200 0, 100 1, 99 2, 98 3, 99 4, 98 5, 99 6, 100 7, 101 8, 102 9, 101 10, 100 11, 101 12, 102 13, 101 14, 102 15, 101 16, 100 17, 101 18, 102 19, 103 20, 102 21, 101 22, 102 23, 103 24, 104 25, 103 26, 104 27, 103 28, 104 29, 103 30, 104 31, 103 32, 104 33, 105 34, 104 35, 105 36, 104 37, 103 38, 104 39, 103 40, 104 41, 105 42, 104 43, 103 44, 104 45, 103 46, 104 47, 105 48, 104 49, 105 50, 104 51, 103 52, 104 53, 105 54, 106 55, 105 56, 106 57, 105 58, 106 59, 105 60, 104 61, 103 62, 102 63, 101 64, 102 65, 101 66, 100 67, 99 68, 100 69, 101 70, 102 71, 103 72, 104 73, 105 74, 104 75, 103 76, 104 77, 105 78, 104 79, 103 80, 104 81, 105 82, 104 83, 105 84, 104 85, 105 86, 106 87, 107 88, 106 89, 105 90, 106 91, 105 92, 104 93, 103 94, 104 95, 103 96, 102 97, 101 98, 102 99, 103 100, 102 101, 103 102, 104 103, 105 104, 104 105, 103 106, 102 107, 101 108, 100 109, 101 110, 100 111, 99 112, 100 113, 99 114, 100 115, 99 116, 98 117, 97 118, 98 119, 99 120, 100 121, 99 122, 98 123, 97 124, 96 125, 97 126, 96 127, 95 128, 94 129, 93 130, 94 131, 95 132, 94 133, 95 134, 96 135, 95 136, 96 137, 97 138, 98 139, 97 140, 98 141, 97 142, 96 143, 97 144, 96 145, 97 146, 96 147, 95 148, 96 149, 97 150, 96 151, 95 152, 96 153, 95 154, 94 155, 95 156, 94 157, 93 158, 92 159, 91 160, 92 161, 93 162, 92 163, 91 164, 90 165, 89 166, 88 167, 89 168, 88 169, 89 170, 88 171, 87 172, 88 173, 87 174, 86 175, 87 176, 86 177, 85 178, 86 179, 85 180, 86 181, 87 182, 88 183, 89 184, 88 185, 87 186, 86 187, 87 188, 86 189, 87 190, 86 191, 87 192, 88 193, 89 194, 90 195, 91 196, 92 197, 91 198, 92 199, 91 200, 90 201, 89 202, 88 203, 89 204, 88 205, 89 206, 90 207, 89 208, 88 209, 87 210, 88 211, 89 212, 90 213, 89 214, 88 215, 87 216, 88 217, 87 218, 88 219, 87 220, 86 221, 85 222, 84 223, 85 224, 84 225, 85 226, 84 227, 83 228, 82 229, 81 230, 80 231, 79 232, 80 233, 79 234, 78 235, 77 236, 78 237, 77 238, 78 239, 79 240, 78 241, 77 242, 78 243, 79 244, 78 245, 77 246, 76 247, 75 248, 74 249, 73 250, 74 251, 75 252, 76 253, 77 254, 78 255, 77 256, 76 257, 75 258, 76 259, 75 260, 74 261, 73 262, 72 263, 71 264, 72 265, 71 266, 70 267, 71 268, 72 269, 71 270, 70 271, 69 272, 70 273, 71 274, 70 275, 71 276, 70 277, 71 278, 70 279, 69 280, 68 281, 69 282, 68 283, 67 284, 68 285, 67 286, 66 287, 65 288, 66 289, 65 290, 64 291, 63 292, 64 293, 63 294, 62 295, 63 296, 64 297, 65 298, 66 299, 67 300, 68 301, 69 302, 68 303, 69 304, 68 305, 69 306, 70 307, 71 308, 72 309, 71 310, 72 311, 71 312, 70 313, 71 314, 70 315, 69 316, 68 317, 67 318, 68 319, 67 320, 68 321, 67 322, 68 323, 69 324, 68 325, 69 326, 68 327, 69 328, 70 329, 71 330, 70 331, 71 332, 70 333, 69 334, 68 335, 67 336, 66 337, 67 338, 66 339, 67 340, 66 341, 65 342, 66 343, 65 344, 64 345, 65 346, 64 347, 63 348, 62 349, 63 350, 64 351, 65 352, 66 353, 67 354, 68 355, 69 356, 70 357, 71 358, 70 359, 69 360, 70 361, 69 362, 70 363, 71 364, 70 365, 69 366, 70 367, 71 368, 72 369, 73 370, 74 371, 75 372, 76 373, 75 374, 74 375, 73 376, 72 377, 73 378, 74 379, 75 380, 76 381, 77 382, 76 383, 77 384, 76 385, 75 386, 76 387, 77 388, 76 389, 75 390, 74 391, 75 392, 74 393, 73 394, 72 395, 71 396, 72 397, 71 398, 70 399, 69 400, 200 " style="fill:rgb(138,13,144);stroke:rgb(38,0,44)"></polygon><polygon points="0, 200 0, 100 1, 99 2, 98 3, 99 4, 98 5, 97 6, 96 7, 97 8, 98 9, 97 10, 96 11, 95 12, 96 13, 95 14, 94 15, 93 16, 92 17, 91 18, 92 19, 91 20, 90 21, 91 22, 90 23, 89 24, 90 25, 89 26, 90 27, 89 28, 90 29, 91 30, 92 31, 91 32, 90 33, 89 34, 88 35, 87 36, 86 37, 87 38, 86 39, 85 40, 86 41, 85 42, 86 43, 87 44, 88 45, 87 46, 86 47, 85 48, 84 49, 85 50, 84 51, 83 52, 84 53, 85 54, 84 55, 85 56, 84 57, 85 58, 86 59, 87 60, 86 61, 85 62, 86 63, 87 64, 86 65, 87 66, 88 67, 89 68, 88 69, 87 70, 86 71, 87 72, 86 73, 85 74, 84 75, 85 76, 84 77, 85 78, 86 79, 87 80, 88 81, 87 82, 86 83, 85 84, 84 85, 85 86, 84 87, 83 88, 82 89, 81 90, 80 91, 79 92, 78 93, 77 94, 78 95, 79 96, 78 97, 79 98, 80 99, 79 100, 78 101, 79 102, 80 103, 81 104, 80 105, 81 106, 82 107, 83 108, 84 109, 85 110, 84 111, 83 112, 82 113, 83 114, 84 115, 83 116, 82 117, 81 118, 82 119, 81 120, 80 121, 79 122, 80 123, 79 124, 80 125, 81 126, 82 127, 83 128, 84 129, 83 130, 84 131, 85 132, 84 133, 85 134, 84 135, 83 136, 82 137, 81 138, 80 139, 81 140, 82 141, 83 142, 84 143, 83 144, 82 145, 83 146, 84 147, 85 148, 86 149, 85 150, 84 151, 85 152, 84 153, 85 154, 86 155, 85 156, 86 157, 85 158, 86 159, 85 160, 84 161, 83 162, 82 163, 81 164, 82 165, 83 166, 82 167, 83 168, 82 169, 81 170, 82 171, 83 172, 84 173, 83 174, 84 175, 85 176, 86 177, 87 178, 86 179, 87 180, 88 181, 89 182, 90 183, 91 184, 90 185, 89 186, 88 187, 87 188, 88 189, 89 190, 90 191, 91 192, 92 193, 91 194, 90 195, 89 196, 90 197, 89 198, 90 199, 89 200, 90 201, 91 202, 92 203, 93 204, 92 205, 93 206, 92 207, 93 208, 92 209, 93 210, 94 211, 95 212, 94 213, 93 214, 92 215, 91 216, 92 217, 91 218, 92 219, 91 220, 92 221, 91 222, 90 223, 91 224, 90 225, 89 226, 90 227, 91 228, 92 229, 93 230, 92 231, 91 232, 92 233, 93 234, 94 235, 93 236, 92 237, 91 238, 90 239, 91 240, 92 241, 93 242, 92 243, 91 244, 92 245, 91 246, 92 247, 91 248, 90 249, 91 250, 92 251, 91 252, 92 253, 91 254, 92 255, 93 256, 92 257, 91 258, 90 259, 89 260, 88 261, 87 262, 88 263, 87 264, 88 265, 87 266, 88 267, 87 268, 86 269, 85 270, 84 271, 85 272, 84 273, 85 274, 84 275, 83 276, 82 277, 81 278, 80 279, 79 280, 80 281, 79 282, 78 283, 77 284, 76 285, 75 286, 74 287, 75 288, 76 289, 75 290, 76 291, 77 292, 78 293, 77 294, 78 295, 77 296, 76 297, 75 298, 74 299, 73 300, 74 301, 75 302, 74 303, 75 304, 74 305, 75 306, 74 307, 75 308, 74 309, 75 310, 74 311, 73 312, 72 313, 71 314, 70 315, 71 316, 72 317, 71 318, 72 319, 73 320, 72 321, 71 322, 72 323, 73 324, 74 325, 73 326, 74 327, 75 328, 76 329, 75 330, 76 331, 75 332, 76 333, 75 334, 74 335, 75 336, 76 337, 77 338, 78 339, 79 340, 78 341, 77 342, 78 343, 79 344, 78 345, 77 346, 78 347, 77 348, 78 349, 79 350, 78 351, 77 352, 76 353, 75 354, 76 355, 77 356, 78 357, 79 358, 78 359, 77 360, 76 361, 75 362, 76 363, 77 364, 78 365, 77 366, 78 367, 79 368, 78 369, 77 370, 76 371, 77 372, 76 373, 77 374, 76 375, 75 376, 76 377, 77 378, 76 379, 77 380, 78 381, 77 382, 76 383, 77 384, 78 385, 79 386, 78 387, 77 388, 78 389, 79 390, 80 391, 81 392, 80 393, 81 394, 82 395, 81 396, 80 397, 79 398, 78 399, 79 400, 200 " style="fill:rgb(215,235,83);stroke:rgb(115,135,0)"></polygon><polygon points="0, 200 0, 100 1, 99 2, 98 3, 97 4, 98 5, 99 6, 98 7, 99 8, 100 9, 101 10, 100 11, 101 12, 100 13, 99 14, 100 15, 99 16, 98 17, 97 18, 96 19, 95 20, 96 21, 97 22, 98 23, 97 24, 98 25, 99 26, 98 27, 99 28, 100 29, 99 30, 98 31, 99 32, 100 33, 99 34, 100 35, 101 36, 100 37, 99 38, 100 39, 101 40, 102 41, 101 42, 102 43, 103 44, 102 45, 103 46, 102 47, 101 48, 102 49, 101 50, 102 51, 101 52, 100 53, 99 54, 98 55, 97 56, 96 57, 95 58, 94 59, 93 60, 92 61, 93 62, 92 63, 91 64, 90 65, 91 66, 90 67, 89 68, 90 69, 89 70, 88 71, 87 72, 86 73, 87 74, 86 75, 85 76, 86 77, 87 78, 88 79, 89 80, 90 81, 91 82, 92 83, 91 84, 90 85, 91 86, 90 87, 89 88, 88 89, 87 90, 86 91, 87 92, 88 93, 87 94, 86 95, 85 96, 84 97, 85 98, 86 99, 87 100, 88 101, 89 102, 88 103, 87 104, 86 105, 87 106, 88 107, 89 108, 90 109, 91 110, 92 111, 91 112, 90 113, 91 114, 90 115, 89 116, 88 117, 89 118, 88 119, 89 120, 88 121, 89 122, 90 123, 91 124, 92 125, 93 126, 94 127, 93 128, 94 129, 95 130, 96 131, 97 132, 98 133, 97 134, 96 135, 97 136, 96 137, 97 138, 98 139, 97 140, 98 141, 97 142, 98 143, 99 144, 98 145, 97 146, 96 147, 95 148, 94 149, 93 150, 94 151, 93 152, 92 153, 91 154, 92 155, 91 156, 90 157, 89 158, 90 159, 91 160, 90 161, 91 162, 90 163, 89 164, 90 165, 89 166, 90 167, 89 168, 88 169, 89 170, 90 171, 89 172, 90 173, 91 174, 90 175, 89 176, 88 177, 89 178, 88 179, 89 180, 90 181, 89 182, 88 183, 87 184, 88 185, 89 186, 90 187, 89 188, 90 189, 91 190, 92 191, 93 192, 94 193, 93 194, 94 195, 95 196, 96 197, 97 198, 96 199, 95 200, 94 201, 93 202, 92 203, 91 204, 92 205, 93 206, 94 207, 95 208, 94 209, 93 210, 92 211, 93 212, 92 213, 93 214, 92 215, 91 216, 92 217, 93 218, 94 219, 93 220, 94 221, 93 222, 94 223, 95 224, 96 225, 95 226, 96 227, 95 228, 94 229, 95 230, 96 231, 95 232, 94 233, 95 234, 94 235, 93 236, 94 237, 93 238, 92 239, 93 240, 94 241, 95 242, 96 243, 95 244, 96 245, 97 246, 96 247, 95 248, 94 249, 93 250, 94 251, 93 252, 92 253, 93 254, 92 255, 93 256, 92 257, 93 258, 92 259, 91 260, 92 261, 91 262, 90 263, 89 264, 90 265, 89 266, 90 267, 89 268, 90 269, 91 270, 90 271, 91 272, 92 273, 91 274, 92 275, 93 276, 92 277, 93 278, 94 279, 95 280, 96 281, 95 282, 94 283, 93 284, 94 285, 93 286, 94 287, 95 288, 94 289, 95 290, 96 291, 97 292, 98 293, 97 294, 98 295, 99 296, 98 297, 97 298, 98 299, 99 300, 98 301, 97 302, 96 303, 95 304, 96 305, 95 306, 96 307, 97 308, 98 309, 97 310, 96 311, 97 312, 96 313, 95 314, 96 315, 97 316, 96 317, 95 318, 94 319, 93 320, 92 321, 91 322, 92 323, 93 324, 92 325, 91 326, 92 327, 91 328, 90 329, 89 330, 88 331, 89 332, 90 333, 91 334, 92 335, 91 336, 92 337, 91 338, 90 339, 91 340, 90 341, 89 342, 90 343, 89 344, 88 345, 87 346, 88 347, 89 348, 90 349, 91 350, 90 351, 89 352, 88 353, 89 354, 88 355, 89 356, 90 357, 89 358, 88 359, 87 360, 86 361, 87 362, 88 363, 87 364, 86 365, 85 366, 84 367, 83 368, 84 369, 85 370, 86 371, 87 372, 88 373, 87 374, 86 375, 85 376, 86 377, 87 378, 88 379, 87 380, 86 381, 87 382, 88 383, 89 384, 88 385, 87 386, 86 387, 87 388, 88 389, 87 390, 86 391, 85 392, 86 393, 85 394, 84 395, 85 396, 84 397, 83 398, 82 399, 83 400, 200 " style="fill:rgb(133,131,230);stroke:rgb(33,31,130)"></polygon></svg>